# xmcd
#
# Track frame offsets:
#	150
#	14072
#	30166
#	43963
#	58043
#	77172
#	96214
#	111599
#	125281
#	139626
#	157519
#	173571
#	184694
#	198733
#	215282
#	226015
#
# Disc length: 3180 seconds
#
# Revision: 1
# Processed by: cddbd v1.5.2PL0 Copyright (c) Steve Scherf et al.
# Submitted via: audiograbber 1.83.01
#
DISCID=ce0c6a10
DTITLE=wild canyon - hey little lady (2010)
DYEAR=2016
DGENRE=Country
TTITLE0=Citizen second class 
TTITLE1=The golden ages 
TTITLE2=Holiday in Greece 
TTITLE3=The pearly gate 
TTITLE4=I'm tired of growing old 
TTITLE5=Hello neighbor 
TTITLE6=Grounded 
TTITLE7=No future 
TTITLE8=As one ages 
TTITLE9=Let us be free 
TTITLE10=Hey little lady 
TTITLE11=A soldier's lament 
TTITLE12=A man without friends
TTITLE13=So much mis'ry 
TTITLE14=Like sand caught in the wind 
TTITLE15=Fancy pickin' (Instrumental) 
EXTD=
EXTT0=
EXTT1=
EXTT2=
EXTT3=
EXTT4=
EXTT5=
EXTT6=
EXTT7=
EXTT8=
EXTT9=
EXTT10=
EXTT11=
EXTT12=
EXTT13=
EXTT14=
EXTT15=
PLAYORDER=
